<svg width="73" height="73" viewBox="0 0 73 73" fill="none" xmlns="http://www.w3.org/2000/svg">
<g id="Group 6">
<path id="Vector" d="M17.2701 59.7861H50.9696C58.2635 59.7861 64.1841 65.7067 64.1841 73.0006H4.05566C4.05566 65.7067 9.97628 59.7861 17.2701 59.7861Z" fill="#54AF67"/>
<path id="Vector_2" d="M34.5461 52.6192C33.6355 53.5822 32.0412 53.4717 30.9821 52.369L23.665 44.7319C22.6089 43.6292 22.4896 41.9534 23.4003 40.9904C24.3109 40.0274 25.9052 40.1379 26.9643 41.2406L34.2814 48.8777C35.3375 49.9804 35.4568 51.6562 34.5461 52.6192Z" fill="#54AF67"/>
<path id="Vector_3" d="M15.5073 42.6137V42.8435C15.5073 44.1386 16.5572 45.1885 17.8523 45.1885H24.6108C25.9059 45.1885 26.9558 44.1386 26.9558 42.8435V42.6137C26.9558 41.3186 25.9059 40.2687 24.6108 40.2687H17.8523C16.5572 40.2687 15.5073 41.3186 15.5073 42.6137Z" fill="#54AF67"/>
<path id="Vector_4" d="M10.4912 49.9941C14.3572 49.9941 17.4912 46.8601 17.4912 42.9941C17.4912 39.1281 14.3572 35.9941 10.4912 35.9941C6.62522 35.9941 3.49121 39.1281 3.49121 42.9941C3.49121 46.8601 6.62522 49.9941 10.4912 49.9941Z" fill="#54AF67"/>
<path id="Vector_5" d="M10.4912 46.1513C12.2346 46.1513 13.6479 44.738 13.6479 42.9946C13.6479 41.2512 12.2346 39.8379 10.4912 39.8379C8.74777 39.8379 7.33447 41.2512 7.33447 42.9946C7.33447 44.738 8.74777 46.1513 10.4912 46.1513Z" fill="white"/>
<path id="Vector_6" d="M36.0477 28.2384C36.0477 26.7827 34.8676 25.6025 33.4118 25.6025C31.956 25.6025 30.7759 26.7827 30.7759 28.2384V65.5019C30.7759 66.9577 31.956 68.1378 33.4118 68.1378C34.8676 68.1378 36.0477 66.9577 36.0477 65.5019V28.2384Z" fill="#54AF67"/>
<g id="Group 4">
<g id="Group">
<path id="Vector_7" d="M30.9879 21.7286C30.9879 21.7286 23.2286 0.0759325 0 14.6899C0 14.6899 12.5017 38.6643 30.985 21.7286H30.9879Z" fill="#54AF67"/>
</g>
<g id="Group 3">
<g id="Group_2">
<mask id="mask0_90_209" style="mask-type:alpha" maskUnits="userSpaceOnUse" x="0" y="9" width="31" height="19">
<path id="Vector_8" d="M30.9705 21.7273C30.9705 21.7273 23.2286 0.0494528 0 14.6633C0 14.6633 12.4842 38.6629 30.9676 21.7273H30.9705Z" fill="#1BB25F"/>
</mask>
<g mask="url(#mask0_90_209)">
<g id="Group 2">
<path id="Vector_9" d="M32.3148 21.6081C31.9889 21.1921 31.5875 20.8197 31.1947 20.4676C30.0688 19.4581 28.8119 18.5823 27.4998 17.8317C25.4428 16.6534 23.223 15.7515 20.9507 15.0824C17.7998 14.1543 14.5181 13.6684 11.2421 13.4938C6.79653 13.2582 2.33352 13.6102 -2.05675 14.3114C-2.691 14.4132 -3.32234 14.5208 -3.95659 14.6372C-4.34354 14.707 -4.56174 15.1784 -4.46573 15.5333C-4.35517 15.9406 -3.9595 16.1123 -3.56964 16.0424C0.855547 15.2336 5.35929 14.7798 9.86302 14.8991C13.1972 14.9863 16.4033 15.3733 19.6269 16.2287C20.8925 16.5632 22.1407 16.9676 23.3568 17.4506C23.4906 17.503 23.6215 17.5582 23.7554 17.6106C23.7903 17.6252 23.9823 17.7066 23.831 17.6426C23.9037 17.6746 23.9765 17.7037 24.0492 17.7357C24.2965 17.8434 24.5438 17.9539 24.7853 18.0674C25.2566 18.2885 25.7192 18.5213 26.1789 18.7656C26.9557 19.1846 27.7121 19.6414 28.4366 20.1447C28.5908 20.2523 28.745 20.36 28.8963 20.4705C28.9661 20.52 29.0359 20.5724 29.1028 20.6247C29.1698 20.6771 29.3763 20.8371 29.193 20.6946C29.4345 20.8837 29.6731 21.0757 29.9058 21.2764C30.3946 21.6983 30.8165 22.1667 31.2674 22.6235C31.2732 22.6293 31.2791 22.638 31.2849 22.6439C31.5264 22.9523 32.0588 22.897 32.3148 22.6439C32.6203 22.3384 32.5563 21.9252 32.3148 21.6139V21.6081Z" fill="white"/>
<path id="Vector_10" d="M22.4059 15.7234C21.1956 15.9357 19.9998 16.3052 18.839 16.7009C16.0721 17.6436 13.4013 18.9179 10.9632 20.5297C9.2205 21.6818 7.59124 23.0085 6.13073 24.501C5.47612 25.1702 6.50313 26.2001 7.16066 25.5309C11.0767 21.5305 16.2176 18.7637 21.6087 17.3934C22.0015 17.2944 22.3971 17.1955 22.7957 17.1257C23.1943 17.0559 23.4009 16.5845 23.3049 16.2296C23.1914 15.8194 22.7986 15.6535 22.4088 15.7204L22.4059 15.7234Z" fill="white"/>
<path id="Vector_11" d="M17.6837 14.4384C16.7091 12.3901 15.3999 10.3681 13.8026 8.75632C13.1887 8.13662 12.4992 7.56637 11.7224 7.16488C10.8932 6.73429 10.1571 7.98824 10.9892 8.42174C12.2315 9.06762 13.2469 10.1877 14.0819 11.3108C14.8296 12.3145 15.49 13.3822 16.0777 14.4849C16.1999 14.7118 16.3192 14.9417 16.4298 15.1744C16.5985 15.5294 17.1077 15.6225 17.4248 15.4363C17.7885 15.2239 17.8554 14.7962 17.6866 14.4413L17.6837 14.4384Z" fill="white"/>
</g>
</g>
</g>
</g>
</g>
<g id="Group 5">
<g id="Group_3">
<path id="Vector_12" d="M33.8046 21.631C33.8046 21.631 38.5005 -6.50095 70.0663 6.2119C70.0663 6.2119 60.0953 38.2222 33.8082 21.6303L33.8046 21.631Z" fill="#54AF67"/>
</g>
<g id="Group 3_2">
<g id="Group_4">
<mask id="mask1_90_209" style="mask-type:alpha" maskUnits="userSpaceOnUse" x="33" y="2" width="38" height="25">
<path id="Vector_13" d="M33.8247 21.6227C33.8247 21.6227 38.4937 -6.53613 70.0595 6.17662C70.0595 6.17662 60.1154 38.2138 33.8283 21.6221L33.8247 21.6227Z" fill="#1BB25F"/>
</mask>
<g mask="url(#mask1_90_209)">
<g id="Group 2_2">
<path id="Vector_14" d="M32.1587 21.7742C32.4647 21.1947 32.8725 20.6517 33.2742 20.1356C34.4256 18.6555 35.7663 17.3099 37.2019 16.1047C39.4522 14.2135 41.9622 12.6237 44.5874 11.3063C48.2277 9.47931 52.1252 8.16308 56.0843 7.22801C61.457 5.96059 66.9806 5.40647 72.4924 5.2944C73.2888 5.27886 74.0829 5.27106 74.8825 5.27328C75.37 5.27319 75.7402 5.80023 75.7013 6.25451C75.6561 6.77591 75.2111 7.07258 74.72 7.07331C69.1419 7.06171 63.5462 7.50056 58.0768 8.63879C54.0275 9.48019 50.2005 10.659 46.4554 12.4133C44.9848 13.1005 43.5509 13.8691 42.1734 14.7265C42.0216 14.8199 41.8741 14.9162 41.7223 15.0096C41.6829 15.035 41.4665 15.1768 41.637 15.0653C41.5553 15.1204 41.473 15.1719 41.3913 15.227C41.1133 15.4129 40.8359 15.6023 40.5662 15.794C40.0398 16.1677 39.5266 16.5537 39.0196 16.9532C38.164 17.6356 37.3416 18.3597 36.5686 19.1336C36.4041 19.299 36.2397 19.4643 36.0795 19.6325C36.0052 19.7083 35.9315 19.7876 35.8614 19.8662C35.7913 19.9449 35.5745 20.1857 35.7667 19.9713C35.5137 20.2553 35.265 20.5422 35.0252 20.8385C34.5217 21.461 34.1102 22.1255 33.6606 22.7823C33.6548 22.7907 33.6496 22.8026 33.6438 22.811C33.4171 23.2406 32.7552 23.2905 32.387 23.038C31.9469 22.7326 31.934 22.2144 32.16 21.7813L32.1587 21.7742Z" fill="white"/>
<path id="Vector_15" d="M42.9539 12.4104C44.4776 12.4028 46.0182 12.5902 47.5219 12.8171C51.1059 13.3575 54.6459 14.3238 57.9762 15.7533C60.3567 16.775 62.6372 18.0348 64.7484 19.5341C65.6947 20.2064 64.6684 21.6895 63.7186 21.0179C58.0583 16.9995 51.1753 14.7564 44.2948 14.2726C43.7937 14.2384 43.2891 14.2049 42.7873 14.2076C42.2855 14.2102 41.9296 13.6806 41.9685 13.2263C42.0165 12.7007 42.4593 12.4118 42.9497 12.4075L42.9539 12.4104Z" fill="white"/>
<path id="Vector_16" d="M48.4323 9.80158C49.1702 7.08743 50.3221 4.33148 51.9159 2.01262C52.5284 1.12112 53.2441 0.273306 54.1035 -0.387837C55.0204 -1.09603 56.195 0.271866 55.2752 0.984246C53.9016 2.04621 52.9095 3.63683 52.1381 5.19125C51.4469 6.58087 50.8764 8.02935 50.4023 9.50441C50.3032 9.80826 50.2083 10.115 50.1247 10.4234C49.997 10.8937 49.3962 11.1195 48.9682 10.9622C48.4776 10.7832 48.3017 10.2761 48.4294 9.80577L48.4323 9.80158Z" fill="white"/>
</g>
</g>
</g>
</g>
</g>
</g>
</svg>
