<svg width="38" height="34" viewBox="0 0 38 34" fill="none" xmlns="http://www.w3.org/2000/svg">
<path id="Vector" d="M26.2726 0.0409155C23.5791 0.0409155 21.0513 2.61853 18.9793 4.25511C16.9073 2.61853 14.3381 0.0409155 11.6859 0.0409155C5.22137 0.0409155 0 5.23707 0 11.5788C0 12.8881 0.124318 13.9928 0.455834 14.9338C0.870229 16.284 1.65758 17.1432 2.44493 17.9206L19.0207 34C19.3108 34 35.1821 18.3297 35.1821 18.3297C35.928 17.5933 36.8397 16.5704 37.337 15.3839C37.7928 14.361 38 13.0927 38 11.5379C38 5.15524 32.7372 0 26.3141 0L26.2726 0.0409155Z" fill="#11773F"/>
</svg>
