<svg width="73" height="80" viewBox="0 0 73 80" fill="none" xmlns="http://www.w3.org/2000/svg">
<g id="&#226;&#156;&#143;&#239;&#184;&#143; SF Symbol">
<path id="&#226;&#156;&#143;&#239;&#184;&#143; SF Symbol_2" d="M51.4066 28.726C57.1329 28.726 61.92 24.0125 61.92 18.2717C61.92 12.5006 57.1329 7.78711 51.4066 7.78711C45.6197 7.78711 40.8933 12.5006 40.8933 18.2717C40.8933 24.0125 45.6197 28.726 51.4066 28.726ZM12.4739 59.4847H60.496C63.344 59.4847 65.071 58.0344 65.071 55.8287C65.071 52.8072 61.9806 50.0879 59.375 47.3988C57.3753 45.3139 56.8299 41.0234 56.5876 37.5487C56.5573 35.5848 56.4361 33.7114 56.2543 31.9288C54.7394 32.5331 53.1033 32.8654 51.3763 32.8654C43.3474 32.8654 36.7425 26.2786 36.7425 18.2717C36.7425 14.6761 38.0756 11.3827 40.2267 8.84463C39.136 8.30076 37.8635 7.99861 36.4698 7.99861C32.016 7.99861 28.865 11.1107 27.744 15.0689C19.6848 17.9695 16.5944 25.9462 16.3823 37.5487C16.1399 41.0234 15.5946 45.3139 13.5949 47.3988C10.959 50.0879 7.89893 52.8072 7.89893 55.8287C7.89893 58.0344 9.5956 59.4847 12.4739 59.4847ZM36.4698 71.6008C41.6204 71.6008 45.3774 67.8542 45.7712 63.6241H27.1987C27.5925 67.8542 31.3495 71.6008 36.4698 71.6008Z" fill="#54AF67"/>
<ellipse id="Ellipse 16" cx="51.7418" cy="18.0002" rx="10.8297" ry="10.8" fill="#FF0000"/>
</g>
</svg>
