<svg width="70" height="77" viewBox="0 0 70 77" fill="none" xmlns="http://www.w3.org/2000/svg">
<g id="Group">
<path id="Vector" d="M54.4103 22.3872C54.4103 33.1038 45.742 41.7745 35.035 41.7745C24.328 41.7745 15.6597 33.1038 15.6597 22.3872C15.6597 11.6707 24.328 3 35.035 3C45.742 3 54.4103 11.6707 54.4103 22.3872Z" stroke="#C9E6D6" stroke-width="6"/>
<path id="Vector_2" d="M34.986 44C51.0893 44.0243 64.4367 55.9762 66.6496 71.4921C66.7048 71.8793 66.588 72.2216 66.3099 72.5124C66.0132 72.8224 65.5382 73.0537 64.972 73.0537H5C4.43377 73.0537 3.95879 72.8224 3.66215 72.5124C3.38398 72.2216 3.26717 71.8793 3.32238 71.4921C5.53528 55.9762 18.8827 44.0243 34.986 44Z" stroke="#C9E6D6" stroke-width="6"/>
</g>
</svg>
