<svg width="84" height="75" viewBox="0 0 84 75" fill="none" xmlns="http://www.w3.org/2000/svg">
<g id="_&#235;&#160;&#136;&#236;&#157;&#180;&#236;&#150;&#180;_1">
<path id="Vector" d="M44.2908 69.6012V28.5808C44.2908 25.0408 39.709 24.9965 39.709 28.5808V69.6012C39.709 73.1412 44.2908 73.1855 44.2908 69.6012Z" fill="#C1E3D0"/>
<path id="Vector_2" d="M38.3646 25.3998C38.3646 25.3998 38.003 25.6656 37.8423 25.7719C37.6415 25.8782 37.4406 26.0377 37.2398 26.144C37.0389 26.3034 36.0748 26.835 36.8782 26.3566C35.2713 27.207 33.6644 27.9512 31.9772 28.4296C31.4951 28.589 30.9729 28.6954 30.4908 28.8017C30.3703 28.8017 30.2096 28.8548 30.0891 28.908C30.0891 28.908 30.531 28.8548 30.2498 28.908C29.9284 28.908 29.607 29.0143 29.2857 29.0143C28.1608 29.1206 27.036 29.1206 25.9112 28.9611C25.63 28.9611 25.9915 28.9611 26.0317 28.9611C25.871 28.9611 25.7505 28.908 25.5898 28.8548C25.3086 28.8017 24.9872 28.6954 24.706 28.589C24.1035 28.3764 23.541 28.1638 22.9385 27.898C22.9385 27.898 22.5769 27.6854 22.8179 27.8449C23.0992 28.0044 22.6171 27.7386 22.5769 27.6854C22.3359 27.526 22.0948 27.3665 21.8538 27.1539C21.5726 26.9413 21.2914 26.7287 21.0102 26.4629C20.8897 26.3566 20.2469 25.7187 20.488 25.9845C17.7161 23.1142 16.1494 18.9151 15.1049 14.397L13.3373 18.4898C13.9399 18.1709 14.5827 17.9051 15.1852 17.6925C15.8682 17.4267 16.5511 17.2141 17.234 17.0015C17.6759 16.8952 18.0776 16.7889 18.5195 16.6826C18.7204 16.6826 18.9212 16.5763 19.1221 16.5763C19.1623 16.5763 19.5238 16.5231 19.2025 16.5763C18.8409 16.6294 19.4033 16.5763 19.4837 16.5763C20.488 16.47 21.4923 16.3637 22.4966 16.3637C23.0188 16.3637 23.541 16.3637 24.0231 16.47C24.3043 16.47 24.5855 16.5231 24.8667 16.5763C25.1479 16.5763 24.8667 16.5763 24.8266 16.5763C25.0274 16.5763 25.2283 16.6826 25.4291 16.6826C27.9198 17.2673 29.7276 18.1709 31.7763 20.0313C34.267 22.3169 36.1953 26.144 37.4808 30.0242C38.0432 31.672 39.8509 32.044 40.9356 31.1936C42.2211 30.1837 42.3818 28.3233 41.8194 26.6224C39.2484 18.8619 34.4679 12.6961 28.1608 10.6231C23.7419 9.18791 19.0418 9.55998 14.7032 10.9951C13.8194 11.3141 12.8954 11.633 12.0116 12.1114C10.7663 12.7492 9.84234 14.3438 10.2441 16.2042C12.2527 24.9214 16.4707 33.0008 23.5812 35.0738C28.2412 36.4558 33.1824 35.3927 37.5611 33.1071C38.686 32.5224 39.8108 31.9377 40.8553 31.1404C43.6673 29.0674 41.1365 23.3268 38.3244 25.3998H38.3646Z" fill="#C1E3D0"/>
<path id="Vector_3" d="M42.1805 31.1415C49.4919 36.5632 59.5751 37.9983 66.324 30.5036C69.6181 26.836 71.5866 21.5206 72.7917 16.1521C73.2336 14.2917 72.2695 12.6971 71.0242 12.0593C63.994 8.28534 54.6339 8.49795 48.4072 14.5043C45.1935 17.5873 42.8635 21.7332 41.2566 26.5171C40.6942 28.1649 40.895 30.0784 42.1404 31.0883C43.225 31.9388 45.0328 31.5667 45.5952 29.9189C46.8003 26.3045 48.4072 22.9558 50.7774 20.4576C52.5048 18.6503 54.4732 17.5341 56.763 16.8431C58.0485 16.471 58.2896 16.4179 59.6153 16.3647C60.6999 16.3116 61.7444 16.3647 62.829 16.4179C63.0299 16.4179 63.2709 16.4179 63.4718 16.471C63.6727 16.5242 64.2351 16.5773 63.753 16.471C64.1949 16.5773 64.677 16.6305 65.1188 16.7368C65.8821 16.9494 66.6454 17.162 67.4087 17.4278C68.1719 17.6936 68.9754 18.0125 69.7386 18.3846L67.9711 14.2917C67.0471 18.3846 65.6411 22.2116 63.3513 24.9756C61.7444 26.9423 59.9768 28.0585 57.5665 28.6432C57.4058 28.6432 56.763 28.8027 57.2451 28.7495C56.9639 28.7495 56.6425 28.8559 56.3613 28.8559C55.7989 28.8559 55.1963 28.909 54.5937 28.8559C54.0715 28.8559 53.5091 28.7495 52.9869 28.6964C52.3843 28.6432 53.1475 28.7495 52.7056 28.6964C52.3843 28.6432 52.1031 28.5901 51.7817 28.4838C50.0141 28.0585 48.2867 27.3675 46.5995 26.4639C46.479 26.4108 45.8362 26.0387 46.2781 26.3045C46.72 26.5702 46.1978 26.3045 46.0772 26.1982C45.8362 26.0387 45.555 25.8792 45.314 25.7198C45.0729 25.5603 44.8319 25.4009 44.631 25.2414C41.819 23.1684 39.2881 28.909 42.1002 30.982L42.1805 31.1415Z" fill="#C1E3D0"/>
<path id="Vector_4" d="M58.2354 69.1118C58.2354 69.1118 58.1336 69.0237 58.1336 68.9797C58.541 69.4202 58.1845 69.0237 58.0318 68.8475C57.6753 68.4069 57.3189 67.9663 57.0133 67.5257C55.9949 66.1159 55.1801 64.5738 54.62 62.9877C52.8887 58.1854 54.2126 53.4712 58.2354 49.8144H55.5366C56.3004 50.5193 56.2495 50.5193 56.8606 51.2683C57.9299 52.59 58.7956 54.0439 59.4066 55.586C61.3417 60.5645 59.6103 65.2788 55.5366 69.0678C53.8562 70.6098 56.555 72.9449 58.2354 71.4029C63.0221 66.953 65.3136 61.1373 63.2258 55.1895C62.2583 52.4138 60.5269 49.5941 58.1845 47.4793C57.4716 46.8184 56.1986 46.8625 55.4857 47.4793C50.699 51.841 48.8658 57.5686 50.699 63.3843C51.6156 66.2481 53.296 69.1118 55.4857 71.4469C57.0642 73.0771 59.7631 70.742 58.1845 69.1118H58.2354Z" fill="#C1E3D0"/>
<path id="Vector_5" d="M13.0476 69.3034C12.7765 69.0146 13.3639 69.716 12.9573 69.2209C12.7314 68.932 12.5055 68.6019 12.2796 68.3131C11.9633 67.8592 11.6923 67.3641 11.4212 66.8689C11.1501 66.3325 10.9694 65.9611 10.7435 65.2597C9.70444 62.165 10.3821 59.0703 13.0024 56.5945H10.608C10.608 56.5945 10.7887 56.8008 10.9242 56.9246C10.9694 56.9659 11.0146 57.0484 11.0598 57.0897C11.2857 57.3372 10.9242 56.8834 11.0598 57.0484C11.1953 57.2135 11.3308 57.3785 11.4664 57.5436C12.1892 58.5339 12.7314 59.4829 13.0928 60.4319C13.5897 61.7523 13.7705 62.9902 13.5446 64.3519C13.2283 66.2912 12.0989 67.9417 10.6984 69.3447C9.29784 70.7476 11.6019 72.9758 13.0928 71.5316C16.3456 68.3544 17.8817 64.1868 16.4811 59.9368C15.8486 57.9562 14.674 55.9756 13.0928 54.4489C12.4603 53.8299 11.3308 53.8712 10.6984 54.4489C7.44554 57.5436 6.22573 61.6698 7.49072 65.7961C8.12321 67.8592 9.25266 69.8811 10.7435 71.5316C11.3308 72.1918 12.5507 72.068 13.138 71.5316C13.8156 70.9126 13.7253 70.0049 13.138 69.3447L13.0476 69.3034Z" fill="#C1E3D0"/>
<path id="Vector_6" d="M75.0476 68.3034C74.7765 68.0146 75.3639 68.716 74.9573 68.2209C74.7314 67.932 74.5055 67.6019 74.2796 67.3131C73.9633 66.8592 73.6923 66.3641 73.4212 65.8689C73.1501 65.3325 72.9694 64.9611 72.7435 64.2597C71.7044 61.165 72.3821 58.0703 75.0024 55.5945H72.608C72.608 55.5945 72.7887 55.8008 72.9242 55.9246C72.9694 55.9659 73.0146 56.0484 73.0598 56.0897C73.2857 56.3372 72.9242 55.8834 73.0598 56.0484C73.1953 56.2135 73.3308 56.3785 73.4664 56.5436C74.1892 57.5339 74.7314 58.4829 75.0928 59.4319C75.5897 60.7523 75.7705 61.9902 75.5446 63.3519C75.2283 65.2912 74.0989 66.9417 72.6984 68.3447C71.2978 69.7476 73.6019 71.9758 75.0928 70.5316C78.3456 67.3544 79.8817 63.1868 78.4811 58.9368C77.8486 56.9562 76.674 54.9756 75.0928 53.4489C74.4603 52.8299 73.3308 52.8712 72.6984 53.4489C69.4455 56.5436 68.2257 60.6698 69.4907 64.7961C70.1232 66.8592 71.2527 68.8811 72.7435 70.5316C73.3308 71.1918 74.5507 71.068 75.138 70.5316C75.8156 69.9126 75.7253 69.0049 75.138 68.3447L75.0476 68.3034Z" fill="#C1E3D0"/>
<path id="Vector_7" d="M29.2354 69.1118C29.2354 69.1118 29.1336 69.0237 29.1336 68.9797C29.541 69.4202 29.1845 69.0237 29.0318 68.8475C28.6753 68.4069 28.3188 67.9663 28.0133 67.5257C26.9949 66.1159 26.1801 64.5738 25.62 62.9877C23.8886 58.1854 25.2126 53.4712 29.2354 49.8144H26.5366C27.3004 50.5193 27.2495 50.5193 27.8606 51.2683C28.9299 52.59 29.7956 54.0439 30.4066 55.586C32.3417 60.5645 30.6103 65.2788 26.5366 69.0678C24.8562 70.6098 27.555 72.9449 29.2354 71.4029C34.0221 66.953 36.3136 61.1373 34.2258 55.1895C33.2583 52.4138 31.5269 49.5941 29.1845 47.4793C28.4716 46.8184 27.1986 46.8625 26.4857 47.4793C21.699 51.841 19.8658 57.5686 21.699 63.3843C22.6156 66.2481 24.296 69.1118 26.4857 71.4469C28.0642 73.0771 30.7631 70.742 29.1845 69.1118H29.2354Z" fill="#C1E3D0"/>
</g>
</svg>
